<svg width="40" height="40" fill="none" xmlns="http://www.w3.org/2000/svg"><path d="M34.61 0H5.39A5.39 5.39 0 000 5.39v29.22A5.39 5.39 0 005.39 40h14.411l.025-14.294h-3.714a.876.876 0 01-.876-.873l-.018-4.607a.876.876 0 01.876-.88h3.707v-4.452c0-5.166 3.155-7.98 7.764-7.98h3.782c.484 0 .876.393.876.877v3.885a.876.876 0 01-.875.876l-2.321.001c-2.507 0-2.992 1.191-2.992 2.939v3.854h5.508c.524 0 .931.459.87.98l-.546 4.607a.876.876 0 01-.87.773H26.06L26.035 40h8.575A5.39 5.39 0 0040 34.61V5.39A5.39 5.39 0 0034.61 0z" fill="#475993"/></svg>