<svg width="24" height="24" fill="none" xmlns="http://www.w3.org/2000/svg"><path fill-rule="evenodd" clip-rule="evenodd" d="M16.553 2c-1.447 0-2.38.173-3.45.696a6.166 6.166 0 00-1.113.7 6.3 6.3 0 00-1.068-.668C9.832 2.19 8.85 2 7.455 2 3.716 2 1 5.098 1 9.12c0 3.038 1.694 5.973 4.849 8.81 1.656 1.49 3.77 2.964 5.285 3.748l.866.448.866-.448c1.515-.784 3.63-2.258 5.285-3.748C21.306 15.092 23 12.158 23 9.12c0-3.98-2.742-7.104-6.447-7.12zM21 9.12c0 2.38-1.414 4.83-4.186 7.323-1.512 1.36-3.455 2.718-4.814 3.431-1.359-.713-3.302-2.071-4.814-3.43C4.414 13.95 3 11.5 3 9.12 3 6.148 4.884 4 7.455 4c1.11 0 1.793.132 2.58.521.465.23.876.534 1.232.913l.736.785.729-.791c.363-.395.78-.705 1.25-.935C14.746 4.119 15.387 4 16.55 4 19.09 4.01 21 6.19 21 9.12z" fill="#FF2C2C"/><path d="M9.879 4.2l1.818 1.2.606-1.2.606-.6 2.424-.6h2.425l1.818 1.2L20.788 6 22 8.4l-.606 3-2.424 4.2-7.273 5.4-2.424-1.8-3.03-2.4-1.82-1.8-1.212-1.8L2 10.8V8.4l.606-3 1.818-1.8 3.03-.6L9.88 4.2z" fill="#FF2C2C"/></svg>