<svg width="40" height="40" fill="none" xmlns="http://www.w3.org/2000/svg"><path d="M19.999 21.646c5.977 0 10.823-4.845 10.823-10.823C30.822 4.846 25.977 0 20 0 14.02 0 9.176 4.846 9.176 10.823c.007 5.975 4.848 10.816 10.823 10.823zm0-16.65a5.828 5.828 0 110 11.655 5.828 5.828 0 010-11.656z" fill="#FF9800"/><path d="M30.601 26.775a4.193 4.193 0 001.887-3.497 3.02 3.02 0 00-1.694-2.756 3.164 3.164 0 00-3.33.314 12.67 12.67 0 01-14.928 0 3.18 3.18 0 00-3.33-.314 3.024 3.024 0 00-1.695 2.755 4.198 4.198 0 001.887 3.496 19.22 19.22 0 004.878 2.331c.293.091.596.176.908.254l-5.032 4.92a3.33 3.33 0 104.719 4.699L20 33.669l5.138 5.318a3.33 3.33 0 104.702-4.716l-5.023-4.915c.311-.08.615-.165.91-.255a19.15 19.15 0 004.874-2.326z" fill="#FF9800"/></svg>