<svg width="40" height="40" fill="none" xmlns="http://www.w3.org/2000/svg"><g clip-path="url(#clip0)"><path d="M34.426 23.075c1.327 1.296 2.727 2.515 3.917 3.94.526.634 1.023 1.288 1.404 2.024.54 1.045.051 2.196-.886 2.258l-5.828-.003c-1.503.125-2.702-.48-3.71-1.507-.807-.822-1.554-1.697-2.33-2.546-.318-.348-.65-.674-1.048-.933-.796-.516-1.486-.358-1.94.472-.464.844-.569 1.778-.614 2.719-.063 1.372-.477 1.733-1.856 1.795-2.946.14-5.741-.306-8.338-1.792-2.29-1.31-4.065-3.16-5.61-5.253-3.01-4.077-5.314-8.557-7.385-13.162-.466-1.038-.125-1.595 1.02-1.615 1.9-.037 3.801-.034 5.705-.002.772.011 1.284.454 1.582 1.184 1.029 2.529 2.287 4.935 3.867 7.165.42.594.85 1.188 1.46 1.606.676.462 1.19.31 1.509-.444.201-.477.29-.991.335-1.502.15-1.76.17-3.515-.094-5.268-.162-1.094-.778-1.802-1.87-2.009-.556-.105-.473-.312-.204-.63.469-.549.91-.89 1.787-.89h6.586c1.037.205 1.267.67 1.41 1.714l.005 7.315c-.012.404.201 1.603.929 1.87.582.19.966-.276 1.315-.645 1.577-1.673 2.703-3.651 3.708-5.7.446-.9.83-1.835 1.201-2.77.276-.693.708-1.034 1.49-1.019l6.338.006c.188 0 .378.003.56.034 1.068.182 1.36.641 1.03 1.684-.52 1.636-1.53 3-2.52 4.37-1.056 1.463-2.187 2.875-3.235 4.346-.963 1.344-.887 2.021.31 3.188z" fill="#436EAB"/></g><defs><clipPath id="clip0"><path fill="#fff" d="M0 0h40v40H0z"/></clipPath></defs></svg>